<?xml version="1.0" encoding="UTF-8" standalone="no"?><!DOCTYPE svg PUBLIC "-//W3C//DTD SVG 1.1//EN" "http://www.w3.org/Graphics/SVG/1.1/DTD/svg11.dtd"><svg width="100%" height="100%" viewBox="0 0 178 48" version="1.1" xmlns="http://www.w3.org/2000/svg" xmlns:xlink="http://www.w3.org/1999/xlink" xml:space="preserve" style="fill-rule:evenodd;clip-rule:evenodd;stroke-linejoin:round;stroke-miterlimit:1.41421;"><g><path d="M34.4,20.6l-15,0c-0.4,0 -0.7,0.3 -0.7,0.7l0,7.3c0,0.4 0.3,0.7 0.7,0.7l5.8,0l0,9.1c0,0 -1.3,0.4 -4.9,0.4c-4.3,0 -10.2,-1.6 -10.2,-14.7c0,-13.1 6.2,-14.8 12,-14.8c5,0 7.2,0.9 8.6,1.3c0.4,0.1 0.8,-0.3 0.8,-0.7l1.7,-7.1c0,-0.2 -0.1,-0.4 -0.3,-0.5c-0.5,-0.4 -3.9,-2.3 -12.6,-2.3c-9.9,0 -20.2,4.3 -20.2,24.7c0,20.4 11.7,23.4 21.6,23.4c8.2,0 13.1,-3.5 13.1,-3.5c0.2,-0.1 0.2,-0.4 0.2,-0.5l0,-22.8c0.1,-0.4 -0.3,-0.7 -0.6,-0.7Z" style="fill:#23b89b;fill-rule:nonzero;"/><path d="M111.3,2.5c0,-0.4 -0.3,-0.7 -0.7,-0.7l-8.4,0c-0.4,0 -0.7,0.3 -0.7,0.7l0,16.2l-13.1,0l0,-16.2c0,-0.4 -0.3,-0.7 -0.7,-0.7l-8.4,0c-0.4,0 -0.7,0.3 -0.7,0.7l0,44c0,0.4 0.3,0.7 0.7,0.7l8.4,0c0.4,0 0.7,-0.3 0.7,-0.7l0,-18.9l13.1,0l0,18.8c0,0.4 0.3,0.7 0.7,0.7l8.4,0c0.4,0 0.7,-0.3 0.7,-0.7l0,-43.9l0,0Z" style="fill:#23b89b;fill-rule:nonzero;"/><g><ellipse cx="44.8" cy="8.2" rx="5.4" ry="5.5" style="fill:#23b89b;"/><path d="M49.6,37.2c0,-1.1 0,-20.3 0,-20.3c0,-0.4 -0.3,-0.7 -0.7,-0.7l-8.4,0c-0.4,0 -0.7,0.4 -0.7,0.8c0,0 0,24.4 0,29.1c0,0.9 0.5,1.1 1.2,1.1c0,0 3.6,0 7.6,0c0.8,0 1,-0.4 1,-1.1c0,-1.6 0,-7.7 0,-8.9Z" style="fill:#23b89b;fill-rule:nonzero;"/></g><path d="M143.3,16.2l-8.3,0c-0.4,0 -0.7,0.3 -0.7,0.7l0,21.6c0,0 -2.1,1.6 -5.1,1.6c-3,0 -3.8,-1.4 -3.8,-4.3c0,-2.9 0,-18.8 0,-18.8c0,-0.4 -0.3,-0.7 -0.7,-0.7l-8.5,0c-0.4,0 -0.7,0.3 -0.7,0.7c0,0 0,11.5 0,20.2c0,8.7 4.9,10.9 11.6,10.9c5.5,0 9.9,-3 9.9,-3c0,0 0.2,1.6 0.3,1.8c0.1,0.2 0.3,0.4 0.6,0.4l5.4,0c0.4,0 0.7,-0.3 0.7,-0.7l0,-29.5c0,-0.5 -0.3,-0.9 -0.7,-0.9Z" style="fill:#23b89b;fill-rule:nonzero;"/><path d="M166.1,15.3c-4.7,0 -8,2.1 -8,2.1l0,-14.9c0,-0.4 -0.3,-0.7 -0.7,-0.7l-8.4,0c-0.4,0 -0.7,0.3 -0.7,0.7l0,44c0,0.4 0.3,0.7 0.7,0.7l5.8,0c0.3,0 0.5,-0.1 0.6,-0.4c0.1,-0.2 0.4,-2 0.4,-2c0,0 3.4,3.3 10,3.3c7.7,0 12.1,-3.9 12.1,-17.4c-0.1,-13.7 -7.1,-15.4 -11.8,-15.4ZM162.8,40c-2.9,-0.1 -4.9,-1.4 -4.9,-1.4l0,-13.9c0,0 1.9,-1.2 4.3,-1.4c3,-0.3 5.9,0.6 5.9,7.8c0,7.6 -1.3,9.1 -5.3,8.9Z" style="fill:#23b89b;fill-rule:nonzero;"/><path d="M73.8,16.2l-6.3,0l0,-8.3c0,-0.3 -0.2,-0.5 -0.5,-0.5l-8.6,0c-0.3,0 -0.5,0.1 -0.5,0.5l0,8.6c0,0 -4.3,1 -4.6,1.1c-0.3,0.1 -0.5,0.4 -0.5,0.7l0,5.4c0,0.4 0.3,0.7 0.7,0.7l4.4,0c0,0 0,5.7 0,13c-0.1,9.6 6.7,10.6 11.3,10.6c2.1,0 4.6,-0.7 5,-0.8c0.2,-0.1 0.4,-0.4 0.4,-0.6l0,-6c0,-0.4 -0.3,-0.7 -0.7,-0.7c-0.4,0 -1.3,0.1 -2.3,0.1c-3.1,0 -4.1,-1.4 -4.1,-3.3c0,-1.9 0,-12.4 0,-12.4l6.3,0c0.4,0 0.7,-0.3 0.7,-0.7l0,-6.8c0,-0.3 -0.3,-0.6 -0.7,-0.6Z" style="fill:#23b89b;fill-rule:nonzero;"/></g></svg>