<?xml version="1.0" encoding="utf-8"?>
<!-- Generator: Adobe Illustrator 19.2.1, SVG Export Plug-In . SVG Version: 6.00 Build 0)  -->
<!DOCTYPE svg PUBLIC "-//W3C//DTD SVG 1.1//EN" "http://www.w3.org/Graphics/SVG/1.1/DTD/svg11.dtd">
<svg version="1.1" id="Layer_1" xmlns="http://www.w3.org/2000/svg" xmlns:xlink="http://www.w3.org/1999/xlink" x="0px" y="0px"
	 viewBox="0 0 178 48" style="enable-background:new 0 0 178 48;" xml:space="preserve">
<style type="text/css">
	.st0{fill:#FFFFFF;}
</style>
<g>
	<path class="st0" d="M34.4,20.6H19.4c-0.4,0-0.7,0.3-0.7,0.7v7.3c0,0.4,0.3,0.7,0.7,0.7h5.8v9.1c0,0-1.3,0.4-4.9,0.4
		c-4.3,0-10.2-1.6-10.2-14.7c0-13.1,6.2-14.8,12-14.8c5,0,7.2,0.9,8.6,1.3c0.4,0.1,0.8-0.3,0.8-0.7l1.7-7.1c0-0.2-0.1-0.4-0.3-0.5
		C32.4,1.9,29,0,20.3,0C10.4,0,0.1,4.3,0.1,24.7c0,20.4,11.7,23.4,21.6,23.4c8.2,0,13.1-3.5,13.1-3.5c0.2-0.1,0.2-0.4,0.2-0.5V21.3
		C35.1,20.9,34.7,20.6,34.4,20.6z"/>
	<path class="st0" d="M111.3,2.5c0-0.4-0.3-0.7-0.7-0.7h-8.4c-0.4,0-0.7,0.3-0.7,0.7c0,0,0,16.2,0,16.2H88.4V2.5
		c0-0.4-0.3-0.7-0.7-0.7h-8.4c-0.4,0-0.7,0.3-0.7,0.7v44c0,0.4,0.3,0.7,0.7,0.7h8.4c0.4,0,0.7-0.3,0.7-0.7V27.6h13.1
		c0,0,0,18.8,0,18.8c0,0.4,0.3,0.7,0.7,0.7h8.4c0.4,0,0.7-0.3,0.7-0.7V2.5z"/>
	<g>
		<g>
			<ellipse class="st0" cx="44.8" cy="8.2" rx="5.4" ry="5.5"/>
			<path class="st0" d="M49.6,37.2c0-1.1,0-20.3,0-20.3c0-0.4-0.3-0.7-0.7-0.7h-8.4c-0.4,0-0.7,0.4-0.7,0.8c0,0,0,24.4,0,29.1
				c0,0.9,0.5,1.1,1.2,1.1c0,0,3.6,0,7.6,0c0.8,0,1-0.4,1-1.1C49.6,44.5,49.6,38.4,49.6,37.2z"/>
		</g>
	</g>
	<path class="st0" d="M143.3,16.2h-8.3c-0.4,0-0.7,0.3-0.7,0.7v21.6c0,0-2.1,1.6-5.1,1.6c-3,0-3.8-1.4-3.8-4.3c0-2.9,0-18.8,0-18.8
		c0-0.4-0.3-0.7-0.7-0.7h-8.5c-0.4,0-0.7,0.3-0.7,0.7c0,0,0,11.5,0,20.2c0,8.7,4.9,10.9,11.6,10.9c5.5,0,9.9-3,9.9-3
		s0.2,1.6,0.3,1.8c0.1,0.2,0.3,0.4,0.6,0.4l5.4,0c0.4,0,0.7-0.3,0.7-0.7l0-29.5C144,16.6,143.7,16.2,143.3,16.2z"/>
	<path class="st0" d="M166.1,15.3c-4.7,0-8,2.1-8,2.1V2.5c0-0.4-0.3-0.7-0.7-0.7H149c-0.4,0-0.7,0.3-0.7,0.7v44
		c0,0.4,0.3,0.7,0.7,0.7c0,0,5.8,0,5.8,0c0.3,0,0.5-0.1,0.6-0.4c0.1-0.2,0.4-2,0.4-2s3.4,3.3,10,3.3c7.7,0,12.1-3.9,12.1-17.4
		C177.8,17,170.8,15.3,166.1,15.3z M162.8,40c-2.9-0.1-4.9-1.4-4.9-1.4V24.7c0,0,1.9-1.2,4.3-1.4c3-0.3,5.9,0.6,5.9,7.8
		C168.1,38.7,166.8,40.2,162.8,40z"/>
	<path class="st0" d="M73.8,16.2h-6.3c0,0,0-8.3,0-8.3c0-0.3-0.2-0.5-0.5-0.5h-8.6c-0.3,0-0.5,0.1-0.5,0.5v8.6c0,0-4.3,1-4.6,1.1
		c-0.3,0.1-0.5,0.4-0.5,0.7v5.4c0,0.4,0.3,0.7,0.7,0.7h4.4c0,0,0,5.7,0,13C57.8,47,64.6,48,69.2,48c2.1,0,4.6-0.7,5-0.8
		c0.2-0.1,0.4-0.4,0.4-0.6l0-6c0-0.4-0.3-0.7-0.7-0.7c-0.4,0-1.3,0.1-2.3,0.1c-3.1,0-4.1-1.4-4.1-3.3c0-1.9,0-12.4,0-12.4h6.3
		c0.4,0,0.7-0.3,0.7-0.7v-6.8C74.5,16.5,74.2,16.2,73.8,16.2z"/>
</g>
</svg>
