<?xml version="1.0" encoding="utf-8"?>
<!-- Generator: Adobe Illustrator 18.1.1, SVG Export Plug-In . SVG Version: 6.00 Build 0)  -->
<!DOCTYPE svg PUBLIC "-//W3C//DTD SVG 1.1//EN" "http://www.w3.org/Graphics/SVG/1.1/DTD/svg11.dtd">
<svg version="1.1" id="Layer_1" xmlns="http://www.w3.org/2000/svg" xmlns:xlink="http://www.w3.org/1999/xlink" x="0px" y="0px"
	 viewBox="0 0 481.9 227.7" enable-background="new 0 0 481.9 227.7" xml:space="preserve">
<g>
	<circle fill="#FFFFFF" cx="85.5" cy="106.1" r="40.5"/>
	<g>
		<path fill="#66499C" d="M129,79.3c2.6-6.1,3.9-12.5,3.9-19.1c0-3-0.3-6-0.8-8.9c-0.3-1.5-1.5-2.5-3-2.5c-1,0-1.9,0.5-2.4,1.3
			c-2.9,4.4-6.5,8.4-10.7,11.8c-2.2-1.9-4.7-3.6-7.2-5.1c-0.3-0.2-0.7-0.4-1.1-0.6c0,0-0.1,0-0.1,0c-5.8-3.2-12-5.2-18.5-5.9
			c0,0-0.1,0-0.1,0c-8-0.8-15.3-5-20.2-11.3l-0.1-0.1c-0.1-0.2-0.3-0.3-0.5-0.3c-0.2,0-0.3,0.2-0.4,0.3l-0.1,0.3
			c-0.1,0.2-0.1,0.4-0.1,0.6l0,0.2c-0.1,0.3-0.1,0.7-0.2,1.1c-0.1,0.5-0.2,1-0.2,1.4l0,0.3c-0.1,0.5-0.1,1.1-0.2,1.7
			c0,0.6-0.1,1.3-0.1,1.9c0,2.1,0.2,4.2,0.7,6.3c0,0,0,0.1,0,0.1c0.3,1.6,0.8,3.1,1.4,4.6c-1.2-1.2-2.3-2.5-3.3-4
			c-0.1-0.2-0.3-0.2-0.5-0.2c-2.2,0.9-4.3,1.9-6.4,3c-0.1,0-0.1,0-0.2,0.1l-0.6,0.4c-0.2,0.1-0.4,0.2-0.5,0.3l-0.2,0.1
			c-0.4,0.3-0.8,0.5-1.2,0.8c-1.6,1.1-3.2,2.2-4.6,3.4c-3.9-3.3-7.3-7.1-10.1-11.3c-0.6-0.8-1.5-1.3-2.5-1.3c-1.3,0-2.7,0.9-3,2.5
			c-0.8,4.2-1,8.5-0.6,12.8c0.4,4.9,1.5,9.7,3.4,14.3c-1.8,3.9-3,7.5-3.6,10.7c-0.8,1.4-12.5,22.2-6.3,49.6c0,0.1,0.1,0.2,0.2,0.3
			c0.1,0.1,0.3,0.1,0.4,0c2.9-1.4,8.3-3.5,15.2-4.3c-3,1-7.3,2.8-11.5,5.5c-0.2,0.1-0.2,0.3-0.2,0.5c0.1,0.2,5.6,20.7,26.6,36.5
			c0.1,0.1,0.2,0.1,0.3,0.1c0.3,0,0.5-0.2,0.5-0.5c0-0.1,0-0.2-0.1-0.2c-0.2-0.6-0.8-3.3-1.3-6.3c2.9,3.3,11.6,12.2,24.6,18.1
			c0.1,0,0.1,0,0.2,0c0,0,0.1,0,0.1,0c0.4-0.1,38.9-8.8,51.2-50.5c0.6,0.3,1.9,0.8,3,1.3c0.1,0.1,0.3,0.1,0.4,0
			c0.1-0.1,0.2-0.2,0.3-0.3c0-0.1,2.1-7,2-17.9C140.4,111.1,138.3,95.9,129,79.3z M83.4,157.8c-13.2,0-23.4-4.8-28-7.5
			c2.5,0.7,6.2,1.6,9.2,2.1c0,0,0.1,0,0.1,0c0,0,0,0,0,0c0.3,0,0.5-0.2,0.5-0.5c0-0.1,0-0.1,0-0.2c-0.1-0.4-0.2-1.8-0.3-3.4
			c1.5,0.5,3.3,1,5.2,1.5c0,0.9-0.1,1.9,0,3.1c0,0.2,0.2,0.4,0.4,0.4c0.1,0,4.7,0.8,12.2,0.8c6.9,0,17.3-0.7,29.1-3.9
			C106.8,153,96.6,157.8,83.4,157.8z M83.4,138.2c-18.7,0-34-15.2-34-34c0-7.8,2.7-15.4,7.6-21.4c0.1-0.1,0.2-0.3,0.3-0.4l0.2-0.2
			c0.7-0.8,1.3-1.5,1.9-2.1c0.7,0.1,2.8,0.3,5.1,0.2c0.2,0,0.4-0.2,0.4-0.5c0-1,0-2.6,0.3-4.1c0,0,0-0.1,0-0.1c0-0.1,0-0.2,0-0.3
			c0.4-0.3,0.9-0.5,1.3-0.8c4.3,4.9,10.1,5.6,10.4,5.7c0.4,0,0.7-0.3,0.7-0.7c0,0,0-0.1,0-0.2c0-0.2-0.6-3.8,2.4-7.6
			c5,3.4,10.8,5.1,16.9,5.1c1.9,0,3.8-0.2,5.6-0.5c9.2,6.4,14.7,16.8,14.7,28C117.4,123,102.1,138.2,83.4,138.2z"/>
		<path fill="#212121" d="M77.3,86.2c-12.6,0-22.9,10.3-22.9,22.9c0,12.6,10.3,22.8,22.9,22.8c12.6,0,22.8-10.3,22.8-22.8
			C100.1,96.4,89.9,86.2,77.3,86.2z M74.4,99.3c0,2.7-2.2,5-5,5c-2.7,0-4.9-2.2-4.9-5c0-2.7,2.2-4.9,4.9-4.9
			C72.2,94.3,74.4,96.5,74.4,99.3z"/>
		<g opacity="0.2">
			<path fill="#ECF6F2" d="M78.9,64.3c-6.7-6-10.9-14.6-10.9-24.3c0-0.5,0-0.9,0-1.3c-0.2,0-0.3,0.2-0.4,0.3l-0.1,0.3
				c0,0.2-0.1,0.4-0.1,0.6l0,0.2c-0.1,0.3-0.2,0.7-0.2,1.1c-0.1,0.5-0.2,1-0.2,1.4l0,0.3c-0.1,0.5-0.1,1.1-0.2,1.7
				c0,0.6-0.1,1.3-0.1,1.9c0,2.1,0.2,4.2,0.7,6.3c0,0,0,0.1,0,0.1c0.3,1.5,0.8,3,1.3,4.4C71.7,60.3,75.1,62.6,78.9,64.3z"/>
		</g>
		<g opacity="0.2">
			<path fill="#ECF6F2" d="M65.4,66.8c1.8,5.6,5.9,10.4,11.7,13c0.3,0.1,0.5,0.2,0.8,0.3c-0.1,0.1-0.2,0.1-0.3,0.1l-0.2,0
				c-0.1,0-0.3-0.1-0.4-0.1l-0.1,0c-0.2,0-0.5-0.1-0.7-0.2c-0.3-0.1-0.6-0.2-0.9-0.2l-0.2-0.1c-0.3-0.1-0.7-0.2-1.1-0.4
				c-0.4-0.1-0.8-0.3-1.2-0.5c-1.3-0.6-2.5-1.3-3.6-2.1c0,0-0.1,0-0.1,0c-0.8-0.6-1.6-1.3-2.3-2C65.9,72.2,65.4,69.5,65.4,66.8z"/>
		</g>
		<g opacity="0.2">
			<path fill="#ECF6F2" d="M108.3,73.7c-5,3.2-11.2,4.3-17.3,2.5c-0.3-0.1-0.6-0.2-0.8-0.3c0,0.1,0,0.2,0.1,0.3l0.2,0.1
				c0.1,0.1,0.2,0.1,0.4,0.2l0.1,0.1c0.2,0.1,0.4,0.2,0.6,0.3c0.3,0.1,0.6,0.3,0.9,0.4l0.2,0.1c0.3,0.1,0.7,0.3,1.1,0.4
				c0.4,0.1,0.8,0.3,1.2,0.4c1.3,0.4,2.7,0.6,4.1,0.7c0,0,0.1,0,0.1,0c1,0.1,2,0.1,3,0C104.4,77.6,106.5,75.9,108.3,73.7z"/>
		</g>
		<g opacity="0.2">
			<path fill="#ECF6F2" d="M56.7,76.4c2.5,2.3,5.9,3.6,9.5,3.2c0.2,0,0.3,0,0.5-0.1c0,0.1,0,0.1-0.1,0.1l-0.1,0
				c-0.1,0-0.2,0.1-0.2,0.1l-0.1,0c-0.1,0-0.3,0.1-0.4,0.1c-0.2,0.1-0.4,0.1-0.5,0.1l-0.1,0c-0.2,0-0.4,0.1-0.7,0.1
				c-0.2,0-0.5,0.1-0.7,0.1c-0.8,0.1-1.6,0.1-2.4,0c0,0,0,0-0.1,0c-0.6-0.1-1.1-0.2-1.7-0.3C58.4,79,57.4,77.7,56.7,76.4z"/>
		</g>
		<path opacity="0.2" fill="#231F20" d="M129,79.3c4-9.7,3.9-18.6,3.9-18.6c-0.8,12.9-8.2,18.8-8.2,18.8s12.3,15.8,15.6,36.7
			C140.3,116.1,140.3,100.1,129,79.3z"/>
		<path opacity="0.2" fill="#231F20" d="M50.5,133.9c0.5-0.1,0.9-0.3,1.4-0.4c0,0-1.6-0.1-7.6,1.2c0.1,0,0.2,0,0.2,0
			c-3,1-7.3,2.8-11.5,5.5c-0.2,0.1-0.2,0.3-0.2,0.5c0,0.1,1.8,6.7,7.1,15.2c-4.1-9-2.5-14.3-2.4-14.4
			C41.1,138.5,45.6,135.4,50.5,133.9z"/>
		<path opacity="0.2" fill="#231F20" d="M134.8,137.8c0,0-5.2-2.4-8.1-3.6c0,0,3.7,2.7,4.3,4.2c0,0,1.5,5.4-1.3,12.2
			C129.8,150.6,132.4,145.6,134.8,137.8z"/>
		<path opacity="0.2" fill="#231F20" d="M58.7,170.3c0,0-1.5-5.8-1.4-7.6c0,0,0.7,3.1,3.4,7.1c3,4.5,8.4,10.2,13.8,13.8
			C74.5,183.6,66.2,178.4,58.7,170.3z"/>
	</g>
</g>
<g>
	<path fill="#212121" d="M209.4,126.2c0.7,0.1,3.3,0.1,17.3,0.1c14,0,16.5-0.1,17.3-0.1c8.5-0.7,14.2-2.6,17.6-6.1
		c2.8-2.9,4.5-7.3,5.2-13.4c0.2-2,0.3-6.2,0.3-13c0-6.8-0.1-11.1-0.3-13c-0.6-6.1-2.3-10.5-5.2-13.4c-3.3-3.4-9-5.4-17.4-6.1
		c-0.5,0-1.9-0.1-17-0.1c-14.2,0-16.8,0.1-17.4,0.1c-8.6,0.6-14.4,2.6-17.8,6.1c-2.8,2.9-4.5,7.3-5.2,13.4c-0.2,2-0.3,6.2-0.3,13.1
		c0,6.8,0.1,11,0.3,13c0.6,6.1,2.3,10.5,5.2,13.4C195.2,123.6,200.9,125.6,209.4,126.2z M199.6,93.8c0-5.2,0.1-8.6,0.2-10.1
		c0.4-5.8,1.6-7.5,2-7.8c0.4-0.5,2.5-2,11.3-2.5c0.6,0,3.3-0.1,14-0.1c9.6,0,12.7,0.1,13.6,0.1c8.4,0.5,10.5,2,10.9,2.5
		c0.5,0.5,1.6,2.3,2.1,7.9c0.1,1.5,0.2,4.9,0.2,10.1c0,5.1-0.1,8.5-0.2,10.1c-0.4,5.7-1.6,7.4-2,7.8c-0.5,0.5-2.6,2.1-11.1,2.6
		c-0.3,0-2.1,0-13.8,0c-12.4,0-13.6,0-13.7,0c0,0-0.1,0-0.1,0c-8.4-0.5-10.6-2.1-11.1-2.6c-0.4-0.4-1.6-2-2-7.8
		C199.7,102.3,199.6,98.9,199.6,93.8z"/>
	<path fill="#212121" d="M351.5,65.6c-4.3-2.6-10.6-3.8-19.3-3.8h-45.1c-1.7,0-3,1.3-3,3v58c0,1.7,1.3,3,3,3h45.1
		c5.7,0,10.1-0.5,13.5-1.4c5.4-1.5,9.4-4.3,11.9-8.5c2.8-4.8,4.2-12,4.2-22.1c0-6.1-0.5-11.1-1.4-14.9
		C358.9,72.7,355.9,68.3,351.5,65.6z M348.6,94.1c0,9.5-1.4,13.8-2.5,15.6c-1.7,2.8-6.2,4.2-13.2,4.2h-35.7V73.6h35.2
		c7.3,0,12,1.3,13.6,3.9C347.1,79.3,348.6,83.7,348.6,94.1z"/>
	<path fill="#212121" d="M455.2,78.9c-1.6-6.2-4.5-10.6-8.9-13.3c-4.3-2.6-10.6-3.8-19.3-3.8H382c-1.7,0-3,1.3-3,3v58
		c0,1.7,1.3,3,3,3h45.1c5.7,0,10.1-0.5,13.5-1.4c5.4-1.5,9.4-4.3,11.9-8.5c2.8-4.8,4.2-12,4.2-22.1
		C456.6,87.6,456.2,82.6,455.2,78.9z M443.4,94.1c0,9.5-1.4,13.8-2.5,15.6c-1.7,2.8-6.2,4.2-13.2,4.2H392V73.6h35.2
		c7.3,0,12,1.3,13.6,3.9C441.9,79.3,443.4,83.7,443.4,94.1z"/>
	<g>
		<path fill="#212121" d="M214.3,142.1h-2.6c-0.5,0-0.8,0.4-0.8,0.8v17.7L192,142.3c-0.2-0.2-0.4-0.2-0.6-0.2h-4.2
			c-0.5,0-0.8,0.4-0.8,0.8v21.6c0,0.5,0.4,0.9,0.8,0.9h2.6c0.5,0,0.8-0.4,0.8-0.9v-17.7l18.9,18.3c0.2,0.2,0.4,0.2,0.6,0.2h4.2
			c0.5,0,0.9-0.4,0.9-0.9v-21.6C215.2,142.5,214.8,142.1,214.3,142.1z"/>
		<path fill="#212121" d="M245.3,161.5h-18.2v-6.3h17.3c0.5,0,0.9-0.4,0.9-0.9v-2.1c0-0.5-0.4-0.8-0.9-0.8h-17.3v-5.5h18
			c0.5,0,0.9-0.4,0.9-0.8v-2.2c0-0.5-0.4-0.8-0.9-0.8h-21.5c-0.5,0-0.8,0.4-0.8,0.8v21.6c0,0.5,0.4,0.9,0.8,0.9h21.6
			c0.5,0,0.8-0.4,0.8-0.9v-2.2C246.1,161.9,245.7,161.5,245.3,161.5z"/>
		<path fill="#212121" d="M274.6,142.1h-24.5c-0.5,0-0.8,0.4-0.8,0.8v2.2c0,0.5,0.4,0.8,0.8,0.8h10.1v18.5c0,0.5,0.4,0.9,0.8,0.9
			h2.6c0.5,0,0.9-0.4,0.9-0.9v-18.5h10.1c0.5,0,0.8-0.4,0.8-0.8v-2.2C275.4,142.5,275,142.1,274.6,142.1z"/>
		<path fill="#212121" d="M324.6,142.1h-2.7c-0.3,0-0.6,0.2-0.8,0.5l-8.2,17.6l-8.3-17.6c-0.1-0.3-0.4-0.5-0.8-0.5h-3
			c-0.3,0-0.6,0.2-0.8,0.5l-8.3,17.6l-8.2-17.5c-0.1-0.3-0.4-0.5-0.8-0.5h-2.8c-0.3,0-0.6,0.1-0.7,0.4c-0.2,0.2-0.2,0.6-0.1,0.8
			l10.2,21.6c0.1,0.3,0.4,0.5,0.8,0.5h3.2c0.3,0,0.6-0.2,0.8-0.5l8.2-17.4l8.2,17.4c0.1,0.3,0.4,0.5,0.8,0.5h3.2
			c0.3,0,0.6-0.2,0.8-0.5l10.2-21.6c0.1-0.3,0.1-0.6-0.1-0.8C325.2,142.2,324.9,142.1,324.6,142.1z"/>
		<path fill="#212121" d="M356.8,144.1c-1.2-1.2-3.3-1.9-6.3-2.2c-0.5,0-2.5-0.1-6.3-0.1c-5.2,0-6.2,0-6.5,0.1
			c-3.1,0.2-5.2,0.9-6.5,2.2c-1,1-1.6,2.6-1.9,4.8c-0.1,0.7-0.1,2.3-0.1,4.8c0,2.5,0,4.1,0.1,4.8c0.2,2.2,0.9,3.8,1.9,4.8
			c1.2,1.2,3.3,1.9,6.4,2.2c0.4,0,2.5,0.1,6.4,0.1c3.9,0,6,0,6.4-0.1c3.1-0.2,5.2-1,6.4-2.2c1-1,1.6-2.6,1.8-4.8
			c0.1-0.7,0.1-2.3,0.1-4.8c0-2.5,0-4.1-0.1-4.8C358.5,146.7,357.8,145.1,356.8,144.1z M354.4,153.7c0,1.9,0,3.2-0.1,3.8
			c-0.2,2.1-0.6,2.8-0.8,3.1c-0.3,0.3-1.3,0.9-4.3,1c-0.1,0-0.7,0-5.1,0c-4.4,0-5.1,0-5.1,0c-3-0.2-4-0.7-4.3-1
			c-0.2-0.2-0.6-1-0.8-3.1c0-0.6-0.1-1.9-0.1-3.8c0-1.9,0-3.2,0.1-3.8c0.2-2.1,0.6-2.8,0.8-3.1c0.2-0.2,1.1-0.8,4.4-1
			c0.3,0,1.4,0,5.2,0c2.9,0,4.6,0,5.1,0c3.1,0.2,4,0.8,4.2,1c0.2,0.3,0.7,1,0.8,3.1C354.4,150.5,354.4,151.8,354.4,153.7z"/>
		<path fill="#212121" d="M392.4,149.5c0-1.6-0.2-2.9-0.5-3.8c-0.5-1.3-1.5-2.3-2.8-2.9c-1-0.4-2.5-0.7-4.7-0.7h-17.8
			c-0.5,0-0.8,0.4-0.8,0.8v21.6c0,0.5,0.4,0.9,0.8,0.9h2.6c0.5,0,0.9-0.4,0.9-0.9v-7.8h14c2,0,2.8,0.4,3.2,0.7
			c0.2,0.2,0.6,0.8,0.6,3v4.1c0,0.5,0.4,0.9,0.9,0.9h2.6c0.5,0,0.9-0.4,0.9-0.9v-5.6c0-1-0.2-1.8-0.5-2.5c-0.3-0.6-0.8-1.1-1.4-1.5
			c0.1,0,0.1-0.1,0.2-0.1C391.7,154,392.4,152.2,392.4,149.5z M388,149.4c0,1.5-0.3,2.5-1,3c-0.3,0.2-1.2,0.5-3.7,0.5H370v-7h13.2
			c2.3,0,3.3,0.3,3.7,0.5C387.6,146.9,388,147.8,388,149.4z"/>
		<path fill="#212121" d="M411.2,153.4l14.7-9.8c0.3-0.2,0.5-0.6,0.3-1c-0.1-0.4-0.4-0.6-0.8-0.6H421c-0.2,0-0.3,0-0.5,0.1
			l-13.9,9.3h-2.8v-8.5c0-0.5-0.4-0.8-0.9-0.8h-2.6c-0.5,0-0.8,0.4-0.8,0.8v21.6c0,0.5,0.4,0.9,0.8,0.9h2.6c0.5,0,0.9-0.4,0.9-0.9
			v-9.3h2.7l14.8,10c0.1,0.1,0.3,0.1,0.5,0.1h4.3c0.4,0,0.7-0.2,0.8-0.6c0.1-0.4,0-0.7-0.3-1L411.2,153.4z"/>
		<path fill="#212121" d="M450.7,151.8c-1.2-0.2-3.6-0.2-7.3-0.2c-2.5,0-3.8,0-4.1,0c-2.3-0.1-3.3-0.3-3.7-0.5
			c-0.6-0.3-0.8-0.9-0.8-2c0-1.9,0.8-2.4,1.5-2.6c1.4-0.4,4-0.7,7.8-0.7c5.1,0,6.7,0.6,7.1,0.9c0.3,0.2,0.7,0.8,0.7,2.4
			c0,0.5,0.4,0.8,0.8,0.8h2.5c0.5,0,0.9-0.4,0.9-0.8c0-0.1,0-0.1,0-0.2c-0.1-1.3-0.2-2.3-0.4-3c-0.4-1.1-1.1-2-2.1-2.7
			c-1.5-0.9-4.6-1.4-9.5-1.4c-2.6,0-4.6,0.1-5.8,0.2c-2.8,0.3-4.7,0.9-5.8,1.8c-1.4,1.1-2,2.9-2,5.4c0,2.3,0.7,4,2.2,4.9
			c0.9,0.6,2.1,1,3.7,1.2c0.8,0.1,2.1,0.2,3.7,0.2c1.9,0,3.7,0,5.6,0c2.5,0,4.3,0.2,5.4,0.5c1,0.3,1.4,0.9,1.4,2.2
			c0,1.4-0.4,2.2-1.2,2.6c-0.8,0.4-2.8,0.8-7.9,0.8c-3.7,0-6.1-0.2-7.3-0.6c-0.5-0.2-0.9-0.5-1-0.9c-0.1-0.2-0.2-0.8-0.2-1.8v-0.6
			c0-0.5-0.4-0.8-0.9-0.8h-2.6c-0.5,0-0.9,0.4-0.9,0.8v1.5c0,2.7,1.2,4.6,3.6,5.4c1.7,0.6,4.8,0.9,9.7,0.9c3.5,0,6.1-0.1,7.6-0.4
			c1.9-0.3,3.3-1.1,4.2-2.2c0.8-1.1,1.3-2.6,1.3-4.6c0-2.1-0.5-3.6-1.4-4.6C454.3,152.7,452.8,152.1,450.7,151.8z"/>
	</g>
</g>
</svg>
