<?xml version="1.0" encoding="UTF-8" standalone="no"?><!DOCTYPE svg PUBLIC "-//W3C//DTD SVG 1.1//EN" "http://www.w3.org/Graphics/SVG/1.1/DTD/svg11.dtd"><svg width="100%" height="100%" viewBox="0 0 482 228" version="1.1" xmlns="http://www.w3.org/2000/svg" xmlns:xlink="http://www.w3.org/1999/xlink" xml:space="preserve" style="fill-rule:evenodd;clip-rule:evenodd;stroke-linejoin:round;stroke-miterlimit:1.41421;"><g><circle cx="85.5" cy="106.1" r="40.5" style="fill:#fff;"/><g><path d="M129,79.3c2.6,-6.1 3.9,-12.5 3.9,-19.1c0,-3 -0.3,-6 -0.8,-8.9c-0.3,-1.5 -1.5,-2.5 -3,-2.5c-1,0 -1.9,0.5 -2.4,1.3c-2.9,4.4 -6.5,8.4 -10.7,11.8c-2.2,-1.9 -4.7,-3.6 -7.2,-5.1c-0.3,-0.2 -0.7,-0.4 -1.1,-0.6l-0.1,0c-5.8,-3.2 -12,-5.2 -18.5,-5.9l-0.1,0c-8,-0.8 -15.3,-5 -20.2,-11.3l-0.1,-0.1c-0.1,-0.2 -0.3,-0.3 -0.5,-0.3c-0.2,0 -0.3,0.2 -0.4,0.3l-0.1,0.3c-0.1,0.2 -0.1,0.4 -0.1,0.6l0,0.2c-0.1,0.3 -0.1,0.7 -0.2,1.1c-0.1,0.5 -0.2,1 -0.2,1.4l0,0.3c-0.1,0.5 -0.1,1.1 -0.2,1.7c0,0.6 -0.1,1.3 -0.1,1.9c0,2.1 0.2,4.2 0.7,6.3l0,0.1c0.3,1.6 0.8,3.1 1.4,4.6c-1.2,-1.2 -2.3,-2.5 -3.3,-4c-0.1,-0.2 -0.3,-0.2 -0.5,-0.2c-2.2,0.9 -4.3,1.9 -6.4,3c-0.1,0 -0.1,0 -0.2,0.1l-0.6,0.4c-0.2,0.1 -0.4,0.2 -0.5,0.3l-0.2,0.1c-0.4,0.3 -0.8,0.5 -1.2,0.8c-1.6,1.1 -3.2,2.2 -4.6,3.4c-3.9,-3.3 -7.3,-7.1 -10.1,-11.3c-0.6,-0.8 -1.5,-1.3 -2.5,-1.3c-1.3,0 -2.7,0.9 -3,2.5c-0.8,4.2 -1,8.5 -0.6,12.8c0.4,4.9 1.5,9.7 3.4,14.3c-1.8,3.9 -3,7.5 -3.6,10.7c-0.8,1.4 -12.5,22.2 -6.3,49.6c0,0.1 0.1,0.2 0.2,0.3c0.1,0.1 0.3,0.1 0.4,0c2.9,-1.4 8.3,-3.5 15.2,-4.3c-3,1 -7.3,2.8 -11.5,5.5c-0.2,0.1 -0.2,0.3 -0.2,0.5c0.1,0.2 5.6,20.7 26.6,36.5c0.1,0.1 0.2,0.1 0.3,0.1c0.3,0 0.5,-0.2 0.5,-0.5c0,-0.1 0,-0.2 -0.1,-0.2c-0.2,-0.6 -0.8,-3.3 -1.3,-6.3c2.9,3.3 11.6,12.2 24.6,18.1l0.3,0c0.4,-0.1 38.9,-8.8 51.2,-50.5c0.6,0.3 1.9,0.8 3,1.3c0.1,0.1 0.3,0.1 0.4,0c0.1,-0.1 0.2,-0.2 0.3,-0.3c0,-0.1 2.1,-7 2,-17.9c-0.3,-9.8 -2.4,-25 -11.7,-41.6ZM83.4,157.8c-13.2,0 -23.4,-4.8 -28,-7.5c2.5,0.7 6.2,1.6 9.2,2.1l0.1,0c0.3,0 0.5,-0.2 0.5,-0.5c0,-0.1 0,-0.1 0,-0.2c-0.1,-0.4 -0.2,-1.8 -0.3,-3.4c1.5,0.5 3.3,1 5.2,1.5c0,0.9 -0.1,1.9 0,3.1c0,0.2 0.2,0.4 0.4,0.4c0.1,0 4.7,0.8 12.2,0.8c6.9,0 17.3,-0.7 29.1,-3.9c-5,2.8 -15.2,7.6 -28.4,7.6ZM83.4,138.2c-18.7,0 -34,-15.2 -34,-34c0,-7.8 2.7,-15.4 7.6,-21.4c0.1,-0.1 0.2,-0.3 0.3,-0.4l0.2,-0.2c0.7,-0.8 1.3,-1.5 1.9,-2.1c0.7,0.1 2.8,0.3 5.1,0.2c0.2,0 0.4,-0.2 0.4,-0.5c0,-1 0,-2.6 0.3,-4.1l0,-0.1c0,-0.1 0,-0.2 0,-0.3c0.4,-0.3 0.9,-0.5 1.3,-0.8c4.3,4.9 10.1,5.6 10.4,5.7c0.4,0 0.7,-0.3 0.7,-0.7c0,0 0,-0.1 0,-0.2c0,-0.2 -0.6,-3.8 2.4,-7.6c5,3.4 10.8,5.1 16.9,5.1c1.9,0 3.8,-0.2 5.6,-0.5c9.2,6.4 14.7,16.8 14.7,28c0.2,18.7 -15.1,33.9 -33.8,33.9Z" style="fill:#66499c;fill-rule:nonzero;"/><path d="M77.3,86.2c-12.6,0 -22.9,10.3 -22.9,22.9c0,12.6 10.3,22.8 22.9,22.8c12.6,0 22.8,-10.3 22.8,-22.8c0,-12.7 -10.2,-22.9 -22.8,-22.9ZM74.4,99.3c0,2.7 -2.2,5 -5,5c-2.7,0 -4.9,-2.2 -4.9,-5c0,-2.7 2.2,-4.9 4.9,-4.9c2.8,-0.1 5,2.1 5,4.9Z" style="fill:#212121;fill-rule:nonzero;"/><path d="M78.9,64.3c-6.7,-6 -10.9,-14.6 -10.9,-24.3c0,-0.5 0,-0.9 0,-1.3c-0.2,0 -0.3,0.2 -0.4,0.3l-0.1,0.3c0,0.2 -0.1,0.4 -0.1,0.6l0,0.2c-0.1,0.3 -0.2,0.7 -0.2,1.1c-0.1,0.5 -0.2,1 -0.2,1.4l0,0.3c-0.1,0.5 -0.1,1.1 -0.2,1.7c0,0.6 -0.1,1.3 -0.1,1.9c0,2.1 0.2,4.2 0.7,6.3l0,0.1c0.3,1.5 0.8,3 1.3,4.4c3,3 6.4,5.3 10.2,7Z" style="fill:#ecf6f2;fill-opacity:0.2;fill-rule:nonzero;"/><path d="M65.4,66.8c1.8,5.6 5.9,10.4 11.7,13c0.3,0.1 0.5,0.2 0.8,0.3c-0.1,0.1 -0.2,0.1 -0.3,0.1l-0.2,0c-0.1,0 -0.3,-0.1 -0.4,-0.1l-0.1,0c-0.2,0 -0.5,-0.1 -0.7,-0.2c-0.3,-0.1 -0.6,-0.2 -0.9,-0.2l-0.2,-0.1c-0.3,-0.1 -0.7,-0.2 -1.1,-0.4c-0.4,-0.1 -0.8,-0.3 -1.2,-0.5c-1.3,-0.6 -2.5,-1.3 -3.6,-2.1l-0.1,0c-0.8,-0.6 -1.6,-1.3 -2.3,-2c-0.9,-2.4 -1.4,-5.1 -1.4,-7.8Z" style="fill:#ecf6f2;fill-opacity:0.2;fill-rule:nonzero;"/><path d="M108.3,73.7c-5,3.2 -11.2,4.3 -17.3,2.5c-0.3,-0.1 -0.6,-0.2 -0.8,-0.3c0,0.1 0,0.2 0.1,0.3l0.2,0.1c0.1,0.1 0.2,0.1 0.4,0.2l0.1,0.1c0.2,0.1 0.4,0.2 0.6,0.3c0.3,0.1 0.6,0.3 0.9,0.4l0.2,0.1c0.3,0.1 0.7,0.3 1.1,0.4c0.4,0.1 0.8,0.3 1.2,0.4c1.3,0.4 2.7,0.6 4.1,0.7l0.1,0c1,0.1 2,0.1 3,0c2.2,-1.3 4.3,-3 6.1,-5.2Z" style="fill:#ecf6f2;fill-opacity:0.2;fill-rule:nonzero;"/><path d="M56.7,76.4c2.5,2.3 5.9,3.6 9.5,3.2c0.2,0 0.3,0 0.5,-0.1c0,0.1 0,0.1 -0.1,0.1l-0.1,0c-0.1,0 -0.2,0.1 -0.2,0.1l-0.1,0c-0.1,0 -0.3,0.1 -0.4,0.1c-0.2,0.1 -0.4,0.1 -0.5,0.1l-0.1,0c-0.2,0 -0.4,0.1 -0.7,0.1c-0.2,0 -0.5,0.1 -0.7,0.1c-0.8,0.1 -1.6,0.1 -2.4,0l-0.1,0c-0.6,-0.1 -1.1,-0.2 -1.7,-0.3c-1.2,-0.8 -2.2,-2.1 -2.9,-3.4Z" style="fill:#ecf6f2;fill-opacity:0.2;fill-rule:nonzero;"/><path d="M129,79.3c4,-9.7 3.9,-18.6 3.9,-18.6c-0.8,12.9 -8.2,18.8 -8.2,18.8c0,0 12.3,15.8 15.6,36.7c0,-0.1 0,-16.1 -11.3,-36.9Z" style="fill:#231f20;fill-opacity:0.2;fill-rule:nonzero;"/><path d="M50.5,133.9c0.5,-0.1 0.9,-0.3 1.4,-0.4c0,0 -1.6,-0.1 -7.6,1.2c0.1,0 0.2,0 0.2,0c-3,1 -7.3,2.8 -11.5,5.5c-0.2,0.1 -0.2,0.3 -0.2,0.5c0,0.1 1.8,6.7 7.1,15.2c-4.1,-9 -2.5,-14.3 -2.4,-14.4c3.6,-3 8.1,-6.1 13,-7.6Z" style="fill:#231f20;fill-opacity:0.2;fill-rule:nonzero;"/><path d="M134.8,137.8c0,0 -5.2,-2.4 -8.1,-3.6c0,0 3.7,2.7 4.3,4.2c0,0 1.5,5.4 -1.3,12.2c0.1,0 2.7,-5 5.1,-12.8Z" style="fill:#231f20;fill-opacity:0.2;fill-rule:nonzero;"/><path d="M58.7,170.3c0,0 -1.5,-5.8 -1.4,-7.6c0,0 0.7,3.1 3.4,7.1c3,4.5 8.4,10.2 13.8,13.8c0,0 -8.3,-5.2 -15.8,-13.3Z" style="fill:#231f20;fill-opacity:0.2;fill-rule:nonzero;"/></g></g><g><path d="M209.4,126.2c0.7,0.1 3.3,0.1 17.3,0.1c14,0 16.5,-0.1 17.3,-0.1c8.5,-0.7 14.2,-2.6 17.6,-6.1c2.8,-2.9 4.5,-7.3 5.2,-13.4c0.2,-2 0.3,-6.2 0.3,-13c0,-6.8 -0.1,-11.1 -0.3,-13c-0.6,-6.1 -2.3,-10.5 -5.2,-13.4c-3.3,-3.4 -9,-5.4 -17.4,-6.1c-0.5,0 -1.9,-0.1 -17,-0.1c-14.2,0 -16.8,0.1 -17.4,0.1c-8.6,0.6 -14.4,2.6 -17.8,6.1c-2.8,2.9 -4.5,7.3 -5.2,13.4c-0.2,2 -0.3,6.2 -0.3,13.1c0,6.8 0.1,11 0.3,13c0.6,6.1 2.3,10.5 5.2,13.4c3.2,3.4 8.9,5.4 17.4,6ZM199.6,93.8c0,-5.2 0.1,-8.6 0.2,-10.1c0.4,-5.8 1.6,-7.5 2,-7.8c0.4,-0.5 2.5,-2 11.3,-2.5c0.6,0 3.3,-0.1 14,-0.1c9.6,0 12.7,0.1 13.6,0.1c8.4,0.5 10.5,2 10.9,2.5c0.5,0.5 1.6,2.3 2.1,7.9c0.1,1.5 0.2,4.9 0.2,10.1c0,5.1 -0.1,8.5 -0.2,10.1c-0.4,5.7 -1.6,7.4 -2,7.8c-0.5,0.5 -2.6,2.1 -11.1,2.6l-27.5,0l-0.1,0c-8.4,-0.5 -10.6,-2.1 -11.1,-2.6c-0.4,-0.4 -1.6,-2 -2,-7.8c-0.2,-1.7 -0.3,-5.1 -0.3,-10.2Z" style="fill:#fff;fill-rule:nonzero;"/><path d="M351.5,65.6c-4.3,-2.6 -10.6,-3.8 -19.3,-3.8l-45.1,0c-1.7,0 -3,1.3 -3,3l0,58c0,1.7 1.3,3 3,3l45.1,0c5.7,0 10.1,-0.5 13.5,-1.4c5.4,-1.5 9.4,-4.3 11.9,-8.5c2.8,-4.8 4.2,-12 4.2,-22.1c0,-6.1 -0.5,-11.1 -1.4,-14.9c-1.5,-6.2 -4.5,-10.6 -8.9,-13.3ZM348.6,94.1c0,9.5 -1.4,13.8 -2.5,15.6c-1.7,2.8 -6.2,4.2 -13.2,4.2l-35.7,0l0,-40.3l35.2,0c7.3,0 12,1.3 13.6,3.9c1.1,1.8 2.6,6.2 2.6,16.6Z" style="fill:#fff;fill-rule:nonzero;"/><path d="M455.2,78.9c-1.6,-6.2 -4.5,-10.6 -8.9,-13.3c-4.3,-2.6 -10.6,-3.8 -19.3,-3.8l-45,0c-1.7,0 -3,1.3 -3,3l0,58c0,1.7 1.3,3 3,3l45.1,0c5.7,0 10.1,-0.5 13.5,-1.4c5.4,-1.5 9.4,-4.3 11.9,-8.5c2.8,-4.8 4.2,-12 4.2,-22.1c-0.1,-6.2 -0.5,-11.2 -1.5,-14.9ZM443.4,94.1c0,9.5 -1.4,13.8 -2.5,15.6c-1.7,2.8 -6.2,4.2 -13.2,4.2l-35.7,0l0,-40.3l35.2,0c7.3,0 12,1.3 13.6,3.9c1.1,1.8 2.6,6.2 2.6,16.6Z" style="fill:#fff;fill-rule:nonzero;"/><g><path d="M214.3,142.1l-2.6,0c-0.5,0 -0.8,0.4 -0.8,0.8l0,17.7l-18.9,-18.3c-0.2,-0.2 -0.4,-0.2 -0.6,-0.2l-4.2,0c-0.5,0 -0.8,0.4 -0.8,0.8l0,21.6c0,0.5 0.4,0.9 0.8,0.9l2.6,0c0.5,0 0.8,-0.4 0.8,-0.9l0,-17.7l18.9,18.3c0.2,0.2 0.4,0.2 0.6,0.2l4.2,0c0.5,0 0.9,-0.4 0.9,-0.9l0,-21.6c0,-0.3 -0.4,-0.7 -0.9,-0.7Z" style="fill:#fff;fill-rule:nonzero;"/><path d="M245.3,161.5l-18.2,0l0,-6.3l17.3,0c0.5,0 0.9,-0.4 0.9,-0.9l0,-2.1c0,-0.5 -0.4,-0.8 -0.9,-0.8l-17.3,0l0,-5.5l18,0c0.5,0 0.9,-0.4 0.9,-0.8l0,-2.2c0,-0.5 -0.4,-0.8 -0.9,-0.8l-21.5,0c-0.5,0 -0.8,0.4 -0.8,0.8l0,21.6c0,0.5 0.4,0.9 0.8,0.9l21.6,0c0.5,0 0.8,-0.4 0.8,-0.9l0,-2.2c0.1,-0.4 -0.3,-0.8 -0.7,-0.8Z" style="fill:#fff;fill-rule:nonzero;"/><path d="M274.6,142.1l-24.5,0c-0.5,0 -0.8,0.4 -0.8,0.8l0,2.2c0,0.5 0.4,0.8 0.8,0.8l10.1,0l0,18.5c0,0.5 0.4,0.9 0.8,0.9l2.6,0c0.5,0 0.9,-0.4 0.9,-0.9l0,-18.5l10.1,0c0.5,0 0.8,-0.4 0.8,-0.8l0,-2.2c0,-0.4 -0.4,-0.8 -0.8,-0.8Z" style="fill:#fff;fill-rule:nonzero;"/><path d="M324.6,142.1l-2.7,0c-0.3,0 -0.6,0.2 -0.8,0.5l-8.2,17.6l-8.3,-17.6c-0.1,-0.3 -0.4,-0.5 -0.8,-0.5l-3,0c-0.3,0 -0.6,0.2 -0.8,0.5l-8.3,17.6l-8.2,-17.5c-0.1,-0.3 -0.4,-0.5 -0.8,-0.5l-2.8,0c-0.3,0 -0.6,0.1 -0.7,0.4c-0.2,0.2 -0.2,0.6 -0.1,0.8l10.2,21.6c0.1,0.3 0.4,0.5 0.8,0.5l3.2,0c0.3,0 0.6,-0.2 0.8,-0.5l8.2,-17.4l8.2,17.4c0.1,0.3 0.4,0.5 0.8,0.5l3.2,0c0.3,0 0.6,-0.2 0.8,-0.5l10.2,-21.6c0.1,-0.3 0.1,-0.6 -0.1,-0.8c-0.2,-0.4 -0.5,-0.5 -0.8,-0.5Z" style="fill:#fff;fill-rule:nonzero;"/><path d="M356.8,144.1c-1.2,-1.2 -3.3,-1.9 -6.3,-2.2c-0.5,0 -2.5,-0.1 -6.3,-0.1c-5.2,0 -6.2,0 -6.5,0.1c-3.1,0.2 -5.2,0.9 -6.5,2.2c-1,1 -1.6,2.6 -1.9,4.8c-0.1,0.7 -0.1,2.3 -0.1,4.8c0,2.5 0,4.1 0.1,4.8c0.2,2.2 0.9,3.8 1.9,4.8c1.2,1.2 3.3,1.9 6.4,2.2c0.4,0 2.5,0.1 6.4,0.1c3.9,0 6,0 6.4,-0.1c3.1,-0.2 5.2,-1 6.4,-2.2c1,-1 1.6,-2.6 1.8,-4.8c0.1,-0.7 0.1,-2.3 0.1,-4.8c0,-2.5 0,-4.1 -0.1,-4.8c-0.1,-2.2 -0.8,-3.8 -1.8,-4.8ZM354.4,153.7c0,1.9 0,3.2 -0.1,3.8c-0.2,2.1 -0.6,2.8 -0.8,3.1c-0.3,0.3 -1.3,0.9 -4.3,1c-0.1,0 -0.7,0 -5.1,0c-4.4,0 -5.1,0 -5.1,0c-3,-0.2 -4,-0.7 -4.3,-1c-0.2,-0.2 -0.6,-1 -0.8,-3.1c0,-0.6 -0.1,-1.9 -0.1,-3.8c0,-1.9 0,-3.2 0.1,-3.8c0.2,-2.1 0.6,-2.8 0.8,-3.1c0.2,-0.2 1.1,-0.8 4.4,-1l10.3,0c3.1,0.2 4,0.8 4.2,1c0.2,0.3 0.7,1 0.8,3.1c0,0.6 0,1.9 0,3.8Z" style="fill:#fff;fill-rule:nonzero;"/><path d="M392.4,149.5c0,-1.6 -0.2,-2.9 -0.5,-3.8c-0.5,-1.3 -1.5,-2.3 -2.8,-2.9c-1,-0.4 -2.5,-0.7 -4.7,-0.7l-17.8,0c-0.5,0 -0.8,0.4 -0.8,0.8l0,21.6c0,0.5 0.4,0.9 0.8,0.9l2.6,0c0.5,0 0.9,-0.4 0.9,-0.9l0,-7.8l14,0c2,0 2.8,0.4 3.2,0.7c0.2,0.2 0.6,0.8 0.6,3l0,4.1c0,0.5 0.4,0.9 0.9,0.9l2.6,0c0.5,0 0.9,-0.4 0.9,-0.9l0,-5.6c0,-1 -0.2,-1.8 -0.5,-2.5c-0.3,-0.6 -0.8,-1.1 -1.4,-1.5c0.1,0 0.1,-0.1 0.2,-0.1c1.1,-0.8 1.8,-2.6 1.8,-5.3ZM388,149.4c0,1.5 -0.3,2.5 -1,3c-0.3,0.2 -1.2,0.5 -3.7,0.5l-13.3,0l0,-7l13.2,0c2.3,0 3.3,0.3 3.7,0.5c0.7,0.5 1.1,1.4 1.1,3Z" style="fill:#fff;fill-rule:nonzero;"/><path d="M411.2,153.4l14.7,-9.8c0.3,-0.2 0.5,-0.6 0.3,-1c-0.1,-0.4 -0.4,-0.6 -0.8,-0.6l-4.4,0c-0.2,0 -0.3,0 -0.5,0.1l-13.9,9.3l-2.8,0l0,-8.5c0,-0.5 -0.4,-0.8 -0.9,-0.8l-2.6,0c-0.5,0 -0.8,0.4 -0.8,0.8l0,21.6c0,0.5 0.4,0.9 0.8,0.9l2.6,0c0.5,0 0.9,-0.4 0.9,-0.9l0,-9.3l2.7,0l14.8,10c0.1,0.1 0.3,0.1 0.5,0.1l4.3,0c0.4,0 0.7,-0.2 0.8,-0.6c0.1,-0.4 0,-0.7 -0.3,-1l-15.4,-10.3Z" style="fill:#fff;fill-rule:nonzero;"/><path d="M450.7,151.8c-1.2,-0.2 -3.6,-0.2 -7.3,-0.2c-2.5,0 -3.8,0 -4.1,0c-2.3,-0.1 -3.3,-0.3 -3.7,-0.5c-0.6,-0.3 -0.8,-0.9 -0.8,-2c0,-1.9 0.8,-2.4 1.5,-2.6c1.4,-0.4 4,-0.7 7.8,-0.7c5.1,0 6.7,0.6 7.1,0.9c0.3,0.2 0.7,0.8 0.7,2.4c0,0.5 0.4,0.8 0.8,0.8l2.5,0c0.5,0 0.9,-0.4 0.9,-0.8c0,-0.1 0,-0.1 0,-0.2c-0.1,-1.3 -0.2,-2.3 -0.4,-3c-0.4,-1.1 -1.1,-2 -2.1,-2.7c-1.5,-0.9 -4.6,-1.4 -9.5,-1.4c-2.6,0 -4.6,0.1 -5.8,0.2c-2.8,0.3 -4.7,0.9 -5.8,1.8c-1.4,1.1 -2,2.9 -2,5.4c0,2.3 0.7,4 2.2,4.9c0.9,0.6 2.1,1 3.7,1.2c0.8,0.1 2.1,0.2 3.7,0.2c1.9,0 3.7,0 5.6,0c2.5,0 4.3,0.2 5.4,0.5c1,0.3 1.4,0.9 1.4,2.2c0,1.4 -0.4,2.2 -1.2,2.6c-0.8,0.4 -2.8,0.8 -7.9,0.8c-3.7,0 -6.1,-0.2 -7.3,-0.6c-0.5,-0.2 -0.9,-0.5 -1,-0.9c-0.1,-0.2 -0.2,-0.8 -0.2,-1.8l0,-0.6c0,-0.5 -0.4,-0.8 -0.9,-0.8l-2.6,0c-0.5,0 -0.9,0.4 -0.9,0.8l0,1.5c0,2.7 1.2,4.6 3.6,5.4c1.7,0.6 4.8,0.9 9.7,0.9c3.5,0 6.1,-0.1 7.6,-0.4c1.9,-0.3 3.3,-1.1 4.2,-2.2c0.8,-1.1 1.3,-2.6 1.3,-4.6c0,-2.1 -0.5,-3.6 -1.4,-4.6c-1.2,-1 -2.7,-1.6 -4.8,-1.9Z" style="fill:#fff;fill-rule:nonzero;"/></g></g></svg>