<?xml version="1.0" encoding="UTF-8" standalone="no"?><!DOCTYPE svg PUBLIC "-//W3C//DTD SVG 1.1//EN" "http://www.w3.org/Graphics/SVG/1.1/DTD/svg11.dtd"><svg width="100%" height="100%" viewBox="0 0 612 792" version="1.1" xmlns="http://www.w3.org/2000/svg" xmlns:xlink="http://www.w3.org/1999/xlink" xml:space="preserve" style="fill-rule:evenodd;clip-rule:evenodd;stroke-linejoin:round;stroke-miterlimit:1.41421;"><ellipse cx="312.799" cy="358.031" rx="212.051" ry="209.26" style="fill:#fff;"/><g><path d="M540.557,219.558c13.614,-31.518 20.42,-64.587 20.42,-98.688c0,-15.501 -1.571,-31.002 -4.189,-45.986c-1.57,-7.75 -7.853,-12.917 -15.707,-12.917c-5.236,0 -9.948,2.583 -12.566,6.717c-15.184,22.734 -34.033,43.402 -56.023,60.969c-11.519,-9.817 -24.609,-18.601 -37.698,-26.351c-1.571,-1.033 -3.665,-2.067 -5.76,-3.1l-0.523,0c-30.368,-16.534 -62.83,-26.868 -96.863,-30.485l-0.524,0c-41.886,-4.134 -80.108,-25.835 -105.763,-58.386l-0.524,-0.517c-0.523,-1.033 -1.57,-1.55 -2.618,-1.55c-1.047,0 -1.57,1.033 -2.094,1.55l-0.524,1.55c-0.523,1.034 -0.523,2.067 -0.523,3.1l0,1.034c-0.524,1.55 -0.524,3.617 -1.047,5.683c-0.524,2.584 -1.047,5.167 -1.047,7.234l0,1.55c-0.524,2.584 -0.524,5.684 -1.048,8.784c0,3.1 -0.523,6.717 -0.523,9.817c0,10.851 1.047,21.701 3.665,32.552l0,0.516c1.571,8.267 4.189,16.018 7.33,23.768c-6.283,-6.2 -12.042,-12.917 -17.278,-20.668c-0.524,-1.033 -1.571,-1.033 -2.618,-1.033c-11.519,4.65 -22.514,9.817 -33.509,15.501c-0.524,0 -0.524,0 -1.048,0.517l-3.141,2.066c-1.047,0.517 -2.094,1.034 -2.618,1.55l-1.047,0.517c-2.094,1.55 -4.189,2.584 -6.283,4.134c-8.377,5.683 -16.755,11.367 -24.085,17.567c-20.42,-17.051 -38.221,-36.685 -52.882,-58.386c-3.141,-4.134 -7.853,-6.717 -13.089,-6.717c-6.807,0 -14.137,4.65 -15.708,12.917c-4.188,21.701 -5.236,43.919 -3.141,66.137c2.094,25.318 7.854,50.119 17.802,73.887c-9.425,20.151 -15.708,38.752 -18.849,55.286c-4.189,7.234 -65.448,114.706 -32.986,256.279c0,0.517 0.524,1.034 1.047,1.55c0.524,0.517 1.571,0.517 2.094,0c15.184,-7.233 43.458,-18.084 79.585,-22.217c-15.708,5.167 -38.222,14.467 -60.212,28.418c-1.047,0.516 -1.047,1.55 -1.047,2.583c0.523,1.034 29.32,106.956 139.273,188.593c0.523,0.517 1.047,0.517 1.57,0.517c1.571,0 2.618,-1.034 2.618,-2.584c0,-0.517 0,-1.033 -0.523,-1.033c-1.047,-3.1 -4.189,-17.051 -6.807,-32.552c15.184,17.051 60.736,63.037 128.801,93.521l1.571,0c2.095,-0.516 203.674,-45.468 268.074,-260.929c3.142,1.55 9.948,4.133 15.708,6.717c0.523,0.517 1.571,0.517 2.094,0c0.524,-0.517 1.047,-1.034 1.571,-1.55c0,-0.517 10.995,-36.169 10.472,-92.488c-1.571,-50.636 -12.566,-129.173 -61.26,-214.944ZM301.804,625.161c-69.113,0 -122.518,-24.801 -146.603,-38.752c13.089,3.617 32.462,8.267 48.169,10.851l0.524,0c1.571,0 2.618,-1.033 2.618,-2.584c0,-0.516 0,-0.516 0,-1.033c-0.524,-2.067 -1.047,-9.3 -1.571,-17.567c7.854,2.583 17.278,5.166 27.226,7.75c0,4.65 -0.523,9.817 0,16.017c0,1.034 1.048,2.067 2.095,2.067c0.523,0 24.608,4.134 63.877,4.134c36.127,0 90.58,-3.617 152.362,-20.151c-26.179,14.467 -79.584,39.268 -148.697,39.268ZM301.804,523.89c-97.91,0 -178.018,-78.538 -178.018,-175.676c0,-40.302 14.137,-79.57 39.792,-110.572c0.524,-0.517 1.047,-1.55 1.571,-2.067l1.047,-1.033c3.665,-4.134 6.807,-7.751 9.948,-10.851c3.665,0.517 14.66,1.55 26.703,1.034c1.047,0 2.094,-1.034 2.094,-2.584c0,-5.167 0,-13.434 1.571,-21.184l0,-0.517c0,-0.517 0,-1.033 0,-1.55c2.094,-1.55 4.712,-2.583 6.806,-4.133c22.515,25.317 52.882,28.934 54.453,29.451c2.094,0 3.665,-1.55 3.665,-3.617c0,0 0,-0.517 0,-1.033c0,-1.034 -3.141,-19.635 12.566,-39.269c26.179,17.568 56.547,26.351 88.485,26.351c9.949,0 19.897,-1.033 29.321,-2.583c48.17,33.068 76.967,86.804 76.967,144.674c1.047,96.621 -79.061,175.159 -176.971,175.159Z" style="fill:#66499c;fill-rule:nonzero;"/><path d="M269.865,255.21c-65.971,0 -119.9,53.219 -119.9,118.322c0,65.103 53.929,117.806 119.9,117.806c65.972,0 119.377,-53.219 119.377,-117.806c0,-65.62 -53.405,-118.322 -119.377,-118.322ZM254.681,322.896c0,13.951 -11.518,25.835 -26.179,25.835c-14.136,0 -25.655,-11.367 -25.655,-25.835c0,-13.95 11.519,-25.318 25.655,-25.318c14.661,-0.516 26.179,10.851 26.179,25.318Z" style="fill:#212121;fill-rule:nonzero;"/><path d="M278.243,142.054c-35.08,-31.002 -57.071,-75.437 -57.071,-125.556c0,-2.584 0,-4.651 0,-6.717c-1.047,0 -1.571,1.033 -2.094,1.55l-0.524,1.55c0,1.033 -0.523,2.067 -0.523,3.1l0,1.033c-0.524,1.55 -1.047,3.617 -1.047,5.684c-0.524,2.583 -1.048,5.167 -1.048,7.234l0,1.55c-0.523,2.583 -0.523,5.683 -1.047,8.784c0,3.1 -0.523,6.717 -0.523,9.817c0,10.85 1.047,21.701 3.665,32.551l0,0.517c1.57,7.75 4.188,15.501 6.806,22.734c15.708,15.501 33.51,27.385 53.406,36.169Z" style="fill:#ecf6f2;fill-opacity:0.2;fill-rule:nonzero;"/><path d="M207.559,154.971c9.425,28.935 30.891,53.736 61.259,67.17c1.571,0.517 2.618,1.034 4.189,1.55c-0.524,0.517 -1.047,0.517 -1.571,0.517l-1.047,0c-0.524,0 -1.571,-0.517 -2.094,-0.517l-0.524,0c-1.047,0 -2.618,-0.516 -3.665,-1.033c-1.571,-0.517 -3.142,-1.033 -4.712,-1.033l-1.047,-0.517c-1.571,-0.517 -3.666,-1.034 -5.76,-2.067c-2.094,-0.517 -4.189,-1.55 -6.283,-2.583c-6.806,-3.101 -13.089,-6.717 -18.849,-10.851l-0.523,0c-4.189,-3.1 -8.378,-6.717 -12.043,-10.334c-4.712,-12.4 -7.33,-26.351 -7.33,-40.302Z" style="fill:#ecf6f2;fill-opacity:0.2;fill-rule:nonzero;"/><path d="M432.176,190.623c-26.179,16.534 -58.641,22.218 -90.58,12.917c-1.571,-0.516 -3.141,-1.033 -4.189,-1.55c0,0.517 0,1.034 0.524,1.55l1.047,0.517c0.524,0.517 1.047,0.517 2.095,1.033l0.523,0.517c1.047,0.517 2.094,1.033 3.142,1.55c1.57,0.517 3.141,1.55 4.712,2.067l1.047,0.517c1.571,0.516 3.665,1.55 5.759,2.066c2.095,0.517 4.189,1.55 6.283,2.067c6.807,2.067 14.137,3.1 21.467,3.617l0.524,0c5.236,0.517 10.472,0.517 15.707,0c11.519,-6.717 22.514,-15.501 31.939,-26.868Z" style="fill:#ecf6f2;fill-opacity:0.2;fill-rule:nonzero;"/><path d="M162.007,204.574c13.09,11.884 30.892,18.601 49.741,16.534c1.047,0 1.57,0 2.618,-0.517c0,0.517 0,0.517 -0.524,0.517l-0.524,0c-0.523,0 -1.047,0.517 -1.047,0.517l-0.523,0c-0.524,0 -1.571,0.516 -2.095,0.516c-1.047,0.517 -2.094,0.517 -2.618,0.517l-0.523,0c-1.047,0 -2.094,0.517 -3.665,0.517c-1.047,0 -2.618,0.516 -3.665,0.516c-4.189,0.517 -8.378,0.517 -12.566,0l-0.524,0c-3.141,-0.516 -5.759,-1.033 -8.901,-1.55c-6.283,-4.133 -11.519,-10.85 -15.184,-17.567Z" style="fill:#ecf6f2;fill-opacity:0.2;fill-rule:nonzero;"/><path d="M540.557,219.558c20.944,-50.119 20.42,-96.105 20.42,-96.105c-4.189,66.653 -42.934,97.138 -42.934,97.138c0,0 64.401,81.638 81.679,189.626c0,-0.516 0,-83.187 -59.165,-190.659Z" style="fill:#231f20;fill-opacity:0.2;fill-rule:nonzero;"/><path d="M129.545,501.672c2.618,-0.517 4.713,-1.55 7.33,-2.067c0,0 -8.377,-0.517 -39.792,6.2c0.524,0 1.047,0 1.047,0c-15.707,5.167 -38.221,14.468 -60.212,28.418c-1.047,0.517 -1.047,1.551 -1.047,2.584c0,0.517 9.425,34.618 37.175,78.537c-21.467,-46.502 -13.09,-73.887 -12.566,-74.404c18.849,-15.5 42.41,-31.518 68.065,-39.268Z" style="fill:#231f20;fill-opacity:0.2;fill-rule:nonzero;"/><path d="M570.925,521.823c0,0 -27.226,-12.401 -42.41,-18.601c0,0 19.373,13.951 22.514,21.701c0,0 7.854,27.901 -6.807,63.036c0.524,0 14.137,-25.834 26.703,-66.136Z" style="fill:#231f20;fill-opacity:0.2;fill-rule:nonzero;"/><path d="M172.479,689.748c0,0 -7.854,-29.968 -7.33,-39.269c0,0 3.665,16.018 17.802,36.685c15.707,23.252 43.981,52.703 72.254,71.304c0,0 -43.457,-26.868 -82.726,-68.72Z" style="fill:#231f20;fill-opacity:0.2;fill-rule:nonzero;"/></g></svg>