<?xml version="1.0" encoding="UTF-8" standalone="no"?><!DOCTYPE svg PUBLIC "-//W3C//DTD SVG 1.1//EN" "http://www.w3.org/Graphics/SVG/1.1/DTD/svg11.dtd"><svg width="100%" height="100%" viewBox="0 0 166 50" version="1.1" xmlns="http://www.w3.org/2000/svg" xmlns:xlink="http://www.w3.org/1999/xlink" xml:space="preserve" style="fill-rule:evenodd;clip-rule:evenodd;stroke-linejoin:round;stroke-miterlimit:1.41421;"><g><path d="M47.8,31.3c0.1,4.7 -2.6,8.9 -7.6,11.9c-3.7,2.2 -7.8,3.6 -11.9,4.5c-2.7,0.6 -5.6,1.1 -8.4,1.2c-5.4,0.2 -9.7,-2.2 -12.6,-6.8c-2.7,-4.3 -4.1,-9.1 -5.3,-14c-0.7,-3 -1.1,-6 -0.8,-9.2c0.4,-4.4 2.7,-7.8 6.3,-10.2c4,-2.7 8.5,-4.2 13.1,-5.3c2.6,-0.6 5.4,-1.1 8.1,-1.3c4.7,-0.2 8.7,1.3 11.7,5.1c2.3,2.9 3.7,6.3 4.9,9.8c1.3,4.3 2.5,8.6 2.5,14.3ZM33.2,25.9c-0.7,-2.1 -1.3,-4 -2,-6c1.1,-0.4 2.1,-0.7 3.1,-1.1c1.3,-0.5 1.9,-1.8 1.5,-3.1c-0.5,-1.3 -1.7,-1.9 -3.1,-1.4c-1,0.3 -1.9,0.6 -2.9,1c-0.3,-1 -0.6,-1.9 -0.9,-2.8c-0.5,-1.6 -1.8,-2.3 -3.2,-1.8c-1.4,0.5 -2,1.8 -1.5,3.3c0.3,0.9 0.6,1.9 1,2.9c-2.1,0.7 -4.1,1.4 -6.2,2.1c-0.3,-1 -0.6,-1.9 -0.9,-2.8c-0.5,-1.5 -1.8,-2.3 -3.2,-1.8c-1.4,0.5 -1.9,1.8 -1.4,3.3c0.3,0.9 0.6,1.9 0.9,2.8c-1,0.3 -1.9,0.7 -2.8,1c-1.4,0.5 -2.1,1.7 -1.7,3c0.4,1.4 1.7,2 3.2,1.6c0.9,-0.3 1.9,-0.6 2.9,-0.9c0.7,2 1.3,4 2,6c-1,0.4 -2,0.7 -2.9,1c-1.4,0.5 -2.1,1.8 -1.6,3.1c0.4,1.3 1.8,1.9 3.2,1.5c1,-0.3 1.9,-0.6 2.9,-0.9c0.1,0.1 0.1,0.2 0.1,0.2c0.3,0.9 0.6,1.8 0.9,2.6c0.5,1.5 1.8,2.2 3.1,1.8c1.3,-0.4 2,-1.8 1.5,-3.3c-0.3,-1 -0.6,-1.9 -1,-3c2.1,-0.7 4.1,-1.4 6.2,-2.1c0.4,1 0.7,2 1,3c0.5,1.4 1.8,2.1 3.1,1.7c1.3,-0.4 2,-1.8 1.5,-3.2c-0.3,-1 -0.6,-1.9 -1,-3c1,-0.3 2,-0.7 3,-1c1.3,-0.5 2,-1.8 1.6,-3.1c-0.5,-1.3 -1.7,-2 -3.2,-1.5c-1.2,0.3 -2.2,0.6 -3.2,0.9Z" style="fill:#23b89b;fill-rule:nonzero;stroke-width:1px;stroke:#23b89b;"/><path d="M147.3,24.3c3.1,-2.9 5.9,-5.7 8.7,-8.4c0.6,-0.6 1.2,-1.1 1.8,-1.7c0.9,-0.8 1.4,-0.9 2.5,-0.3c0.9,0.5 1.7,1 2.5,1.6c0.9,0.7 0.9,1.2 0.1,2c-2.3,2.3 -4.7,4.6 -7,6.8c-0.2,0.2 -0.5,0.4 -0.8,0.7c0.9,1.1 1.7,2.2 2.5,3.2c2.2,2.9 4.5,5.8 6.7,8.7c0.9,1.2 0.8,1.7 -0.6,2.3c-0.9,0.4 -1.9,0.8 -2.9,1.1c-1.3,0.4 -1.7,0.2 -2.6,-0.9c-2.2,-3 -4.5,-6 -6.7,-9c-0.3,-0.3 -0.5,-0.7 -0.8,-1.1c-1.1,1.1 -2.2,2 -3.1,3c-0.2,0.2 -0.2,0.6 -0.2,0.9c0,1.8 0,3.6 0,5.4c0,1.1 -0.4,1.5 -1.5,1.5c-1.1,0 -2.2,0 -3.4,0c-1.1,0 -1.4,-0.4 -1.5,-1.5c0,-11.5 0,-23.1 0,-34.6c0,-1.3 0.3,-1.6 1.6,-1.7c1.1,0 2.2,0 3.4,0c1.1,0 1.3,0.4 1.4,1.5l0,18.8c-0.1,0.8 -0.1,1.1 -0.1,1.7Z" style="fill:#23b89b;fill-rule:nonzero;stroke-width:1px;stroke:#23b89b;"/><path d="M105.3,25.3c0.5,-3.5 -1.1,-5.5 -4.7,-5.9c-2.4,-0.2 -4.5,0.5 -6.5,1.6c-1.3,0.7 -1.7,0.7 -2.6,-0.5c-0.5,-0.6 -0.9,-1.3 -1.3,-2c-0.5,-1 -0.4,-1.5 0.6,-2.1c2.2,-1.5 4.7,-2.3 7.4,-2.7c2.6,-0.3 5.2,-0.1 7.6,0.9c3.6,1.5 5.7,4.2 5.8,8.1c0.2,5.4 0.1,10.7 0.2,16.1c0,1.3 -0.5,1.6 -1.7,1.6c-1,0 -2,0 -3,0c-1.2,0 -1.6,-0.5 -1.6,-1.7c0,-0.3 0,-0.7 0,-1.2c-0.3,0.3 -0.6,0.4 -0.8,0.6c-3.2,2.8 -8.4,3.4 -12.1,1.3c-5.2,-2.9 -5.2,-10.3 -0.1,-13.4c2.5,-1.5 5.3,-1.9 8.2,-1.6c1.5,0.3 3,0.6 4.6,0.9ZM105.3,31.2c0,-1.5 0,-1.5 -1.4,-1.8c-0.5,-0.1 -1,-0.2 -1.5,-0.3c-2.2,-0.3 -4.4,-0.3 -6.3,1.1c-1.1,0.8 -1.6,1.8 -1.4,3.1c0.3,1.4 1.2,2.1 2.5,2.3c2.8,0.5 5.1,-0.4 7.1,-2.4c0.8,-0.5 1,-1 1,-2Z" style="fill:#23b89b;fill-rule:nonzero;stroke-width:1px;stroke:#23b89b;"/><path d="M66.1,40.7c-3.4,-0.1 -6.6,-0.9 -9.7,-2.4c-1.3,-0.6 -1.4,-1.1 -0.8,-2.4c0.3,-0.6 0.5,-1.1 0.8,-1.7c0.7,-1.3 1.1,-1.3 2.5,-0.9c2.1,0.7 4.2,1.3 6.4,1.7c1,0.2 2.2,0.1 3.2,-0.2c1.7,-0.6 1.8,-2.6 0.3,-3.5c-1,-0.6 -2.1,-1 -3.3,-1.4c-1.9,-0.7 -3.9,-1.2 -5.7,-2c-2.6,-1.2 -4.3,-3.2 -4.3,-6.2c0,-3.2 1.5,-5.4 4.2,-6.8c2.5,-1.3 5.2,-1.5 7.9,-1.1c2.3,0.4 4.5,1.1 6.7,1.8c1.2,0.4 1.4,1 0.9,2.2c-0.3,0.7 -0.7,1.4 -1.1,2.1c-0.7,1.2 -1,1.2 -2.3,0.8c-1.5,-0.5 -3,-1 -4.5,-1.2c-1.7,-0.3 -2.5,-0.3 -3.8,0.2c-0.8,0.3 -1.3,0.9 -1.4,1.8c-0.1,0.9 0.4,1.5 1.1,1.9c1.1,0.5 2.2,0.9 3.3,1.3c1.7,0.6 3.4,1 5,1.7c2.9,1.2 4.6,3.4 4.5,6.7c-0.1,3.2 -1.8,5.4 -4.7,6.7c-1.5,0.7 -3.3,0.9 -5.2,0.9Z" style="fill:#23b89b;fill-rule:nonzero;stroke-width:1px;stroke:#23b89b;"/><path d="M128.7,40.7c-4.6,-0.1 -8.7,-1.4 -11.4,-5.3c-3.1,-4.5 -3.4,-9.4 -1.2,-14.3c2.1,-4.8 6.2,-6.8 11.2,-7.3c3.3,-0.3 6.4,0.3 9.3,1.9c1.2,0.7 1.3,1.1 0.7,2.3c-0.4,0.8 -0.9,1.5 -1.5,2.3c-0.7,1 -1.1,1.1 -2.1,0.5c-1.5,-0.7 -3.1,-1.2 -4.8,-1.2c-4.6,0 -7.7,3.7 -7.4,8.3c0.5,6.2 6.2,9.1 12.3,6.1c1.6,-0.8 1.8,-0.8 2.9,0.7c0.3,0.4 0.6,0.8 0.8,1.2c0.8,1.3 0.7,1.8 -0.6,2.6c-2.3,1.4 -4.9,2.2 -7.6,2.3c-0.2,-0.1 -0.4,-0.1 -0.6,-0.1Z" style="fill:#23b89b;fill-rule:nonzero;stroke-width:1px;stroke:#23b89b;"/><path d="M85.6,21.7c0,5.7 0,11.4 0,17.1c0,1.3 -0.4,1.7 -1.7,1.7c-1,0 -2.1,0 -3.1,0c-1.2,0 -1.6,-0.4 -1.6,-1.6c0,-11.5 0,-22.9 0,-34.4c0,-1.4 0.3,-1.8 1.7,-1.8c1.1,0 2.2,0 3.3,0c1.1,0.1 1.4,0.4 1.4,1.5l0,17.5Z" style="fill:#23b89b;fill-rule:nonzero;stroke-width:1px;stroke:#23b89b;"/><path d="M27.6,27.5c-2.1,0.7 -4.1,1.4 -6.2,2.1c-0.7,-2 -1.3,-4 -2,-6c2.1,-0.7 4.1,-1.4 6.2,-2.1c0.6,2 1.3,3.9 2,6Z" style="fill:#23b89b;fill-rule:nonzero;stroke-width:1px;stroke:#23b89b;"/></g></svg>